<svg id="Layer_1" data-name="Layer 1" xmlns="http://www.w3.org/2000/svg" viewBox="0 0 500 207.89"><defs><style>.cls-1{fill:#f1125b;}.cls-2{fill:#ffd100;}.cls-3{fill:#1e8fff;}</style></defs><g id="Group_2289" data-name="Group 2289"><g id="Group_1732" data-name="Group 1732"><g id="Group_1731" data-name="Group 1731"><g id="Group_1730" data-name="Group 1730"><path id="Path_9585" data-name="Path 9585" class="cls-1" d="M338.25,100.89a5.53,5.53,0,1,0,5.52-5.52A5.52,5.52,0,0,0,338.25,100.89Z"/><path id="Path_9586" data-name="Path 9586" class="cls-2" d="M453.81,100.89a5.53,5.53,0,1,0-5.53,5.52h0A5.53,5.53,0,0,0,453.81,100.89Z"/><path id="Path_9587" data-name="Path 9587" class="cls-3" d="M389.9,100.89a5.53,5.53,0,1,0,5.53-5.52A5.53,5.53,0,0,0,389.9,100.89Z"/><path id="Path_9588" data-name="Path 9588" d="M79.43,58.08a13,13,0,0,0,4.14-2.38,11,11,0,0,0,2.63-3.53,9.65,9.65,0,0,0,.93-4.12,9.33,9.33,0,0,0-2-5.81,11.57,11.57,0,0,0-4.63-3.68h0a9.5,9.5,0,0,0,1.68-2.21,9.15,9.15,0,0,0,.31-8.19A9.74,9.74,0,0,0,80.21,25a12,12,0,0,0-8.5-3h-11l-.06,37H74.5A14.51,14.51,0,0,0,79.43,58.08ZM77.8,34.76a6.4,6.4,0,0,1-2.24,1.75,8,8,0,0,1-1.72.47,14,14,0,0,1-2.24.15H65.2V26.53h6.51a8.87,8.87,0,0,1,4,.8,5.68,5.68,0,0,1,2.36,2,4.76,4.76,0,0,1,.78,2.57,4.18,4.18,0,0,1-1,2.85ZM65.2,41.7h7.53a15.3,15.3,0,0,1,6.06,1,6.91,6.91,0,0,1,2.73,2.18,4.94,4.94,0,0,1,1.1,3.13,5.43,5.43,0,0,1-1,3,7.34,7.34,0,0,1-2.83,2.41,9.46,9.46,0,0,1-4.34,1H65.21Z"/><path id="Path_9589" data-name="Path 9589" d="M117.8,54.64a14.39,14.39,0,0,0,4.66,3.21,14,14,0,0,0,11,0,14.24,14.24,0,0,0,4.6-3.19A13.33,13.33,0,0,0,141.22,50a14.89,14.89,0,0,0,1.06-5.59V21.65h-4.52V44.42a10.2,10.2,0,0,1-.75,3.89,9.57,9.57,0,0,1-2.1,3.19,10.1,10.1,0,0,1-3.2,2.16,9.75,9.75,0,0,1-7.5,0A10.1,10.1,0,0,1,121,51.5a9.57,9.57,0,0,1-2.1-3.19,10.2,10.2,0,0,1-.75-3.89V21.65h-4.52V44.42A14.89,14.89,0,0,0,114.7,50,13.47,13.47,0,0,0,117.8,54.64Z"/><path id="Path_9590" data-name="Path 9590" d="M187.09,52.44a10.74,10.74,0,0,1-6.6,2,13,13,0,0,1-3.67-.52,9,9,0,0,1-3-1.5,5.06,5.06,0,0,1-2.44-4l-.09-1.69-4.45,2.49L167,50a10,10,0,0,0,4.12,6.17,14.59,14.59,0,0,0,4.33,2.14,16.79,16.79,0,0,0,5,.74,15.77,15.77,0,0,0,9.36-2.88,10.56,10.56,0,0,0,3.09-3.49A8.9,8.9,0,0,0,194,48.35a8.54,8.54,0,0,0-1.55-4.91,12.34,12.34,0,0,0-4.19-3.74,12,12,0,0,0-2.6-1,25.66,25.66,0,0,0-3-.62l-1.89-.27c-1.41-.17-2.58-.34-3.46-.51a8.09,8.09,0,0,1-2.21-.68,7.47,7.47,0,0,1-2.69-2.24,4.45,4.45,0,0,1-1-2.66,4,4,0,0,1,.61-2.06,6.58,6.58,0,0,1,1.88-2,9,9,0,0,1,3-1.47,13.14,13.14,0,0,1,7.25,0,9.69,9.69,0,0,1,3,1.47,6.8,6.8,0,0,1,1.8,1.94,4.55,4.55,0,0,1,.63,2.09l.07,1.71L194,30.93l-.13-.73a9.81,9.81,0,0,0-4.07-6.15,15.86,15.86,0,0,0-9.35-2.88,17.17,17.17,0,0,0-5,.75,14.59,14.59,0,0,0-4.33,2.14A11,11,0,0,0,168,27.47a8.55,8.55,0,0,0-1.13,4.25,8.9,8.9,0,0,0,1.7,5.19,11.84,11.84,0,0,0,4.53,3.74h0a16,16,0,0,0,4.28,1.27l2.76.43a18.91,18.91,0,0,1,5.94,1.33,7.45,7.45,0,0,1,2.57,2.16,4.07,4.07,0,0,1,.85,2.49A5,5,0,0,1,187.09,52.44Z"/><rect id="Rectangle_555" data-name="Rectangle 555" x="233.34" y="21.98" width="4.52" height="36.96"/><path id="Path_9591" data-name="Path 9591" d="M279.56,32l24.13,28.9V21.5h-4.52V48.07L275,19.22V58.46h4.52Z"/><path id="Path_9592" data-name="Path 9592" d="M356.11,54.33H336V42.77h15.71V38.19H336V26.57h20.16V22H331.43V59h24.68Z"/><path id="Path_9593" data-name="Path 9593" d="M402.06,52.46a10.74,10.74,0,0,1-6.6,2,12.67,12.67,0,0,1-3.67-.52,9.27,9.27,0,0,1-3-1.49,5.05,5.05,0,0,1-2.43-4l-.1-1.68-4.44,2.48L382,50a10,10,0,0,0,4.12,6.17,14.59,14.59,0,0,0,4.33,2.14,17.12,17.12,0,0,0,5,.75,15.83,15.83,0,0,0,9.36-2.89,10.56,10.56,0,0,0,3.09-3.49A8.87,8.87,0,0,0,409,48.37a8.54,8.54,0,0,0-1.55-4.91,12.34,12.34,0,0,0-4.19-3.74,11.85,11.85,0,0,0-2.6-1,25.66,25.66,0,0,0-3-.62l-1.89-.27c-1.42-.17-2.58-.34-3.46-.51a8.09,8.09,0,0,1-2.21-.68,7.43,7.43,0,0,1-2.68-2.23,4.38,4.38,0,0,1-1-2.67,3.86,3.86,0,0,1,.6-2.06,7,7,0,0,1,1.88-2,9,9,0,0,1,2.95-1.46,13,13,0,0,1,7.26,0,9.89,9.89,0,0,1,3,1.46,7.09,7.09,0,0,1,1.79,1.95,4.39,4.39,0,0,1,.63,2.08l.07,1.71L409,31l-.12-.74a9.85,9.85,0,0,0-4.08-6.15,15.75,15.75,0,0,0-9.34-2.87,16.85,16.85,0,0,0-5,.74,15,15,0,0,0-4.33,2.14A11.27,11.27,0,0,0,383,27.49a8.47,8.47,0,0,0-1.12,4.25,8.81,8.81,0,0,0,1.7,5.19,11.72,11.72,0,0,0,4.52,3.74h0a15.7,15.7,0,0,0,4.29,1.27l2.75.43a19,19,0,0,1,5.95,1.33,7.56,7.56,0,0,1,2.57,2.16,4.16,4.16,0,0,1,.85,2.49A5,5,0,0,1,402.06,52.46Z"/><path id="Path_9594" data-name="Path 9594" d="M456.11,39.59a11.85,11.85,0,0,0-2.6-1,25.66,25.66,0,0,0-3-.62l-1.89-.27c-1.41-.17-2.58-.34-3.46-.51a8.09,8.09,0,0,1-2.21-.68,7.55,7.55,0,0,1-2.69-2.23,4.51,4.51,0,0,1-1-2.67,4,4,0,0,1,.6-2.06,6.83,6.83,0,0,1,1.88-2,8.9,8.9,0,0,1,3-1.46,13,13,0,0,1,7.25,0,9.56,9.56,0,0,1,3,1.46,6.79,6.79,0,0,1,1.79,1.95,4.49,4.49,0,0,1,.64,2.08l.07,1.71,4.45-2.49-.13-.73a9.82,9.82,0,0,0-4.08-6.15,15.83,15.83,0,0,0-9.34-2.88,17.12,17.12,0,0,0-5,.75A14.59,14.59,0,0,0,438.94,24a10.91,10.91,0,0,0-3.11,3.41,8.55,8.55,0,0,0-1.13,4.25,8.81,8.81,0,0,0,1.7,5.19,11.84,11.84,0,0,0,4.53,3.74,15.63,15.63,0,0,0,4.28,1.27c1.57.25,2.48.4,2.76.43a19,19,0,0,1,5.94,1.33,7.56,7.56,0,0,1,2.57,2.16,4.1,4.1,0,0,1,.85,2.49,5,5,0,0,1-2.42,4.09,10.74,10.74,0,0,1-6.6,2,12.67,12.67,0,0,1-3.67-.52,9.37,9.37,0,0,1-3-1.49,5.09,5.09,0,0,1-2.44-4l-.09-1.68-4.44,2.48.14.75A10,10,0,0,0,439,56a14.59,14.59,0,0,0,4.33,2.14,17.12,17.12,0,0,0,5,.75A15.85,15.85,0,0,0,457.67,56a10.45,10.45,0,0,0,3.09-3.49,8.87,8.87,0,0,0,1.09-4.28,8.56,8.56,0,0,0-1.55-4.91A12.38,12.38,0,0,0,456.11,39.59Z"/><path id="Path_9595" data-name="Path 9595" d="M83.68,106.42,59.56,77.57v39.24h4.52V90.35l24.12,28.9V79.85H83.68Z"/><path id="Path_9596" data-name="Path 9596" d="M137.34,82a18.67,18.67,0,0,0-18.76,0,18.93,18.93,0,0,0,0,32.65,18.62,18.62,0,0,0,18.76,0,18.93,18.93,0,0,0,0-32.65Zm4.74,16.33a14.05,14.05,0,0,1-1.89,7.16,14.27,14.27,0,0,1-5.15,5.2,14,14,0,0,1-14.15,0,14.32,14.32,0,0,1,0-24.73A14,14,0,0,1,135,86a14.34,14.34,0,0,1,5.15,5.2,14.09,14.09,0,0,1,1.89,7.17Z"/><path id="Path_9597" data-name="Path 9597" d="M190.26,102.62a10.2,10.2,0,0,1-.75,3.89,9.73,9.73,0,0,1-2.1,3.19,10.17,10.17,0,0,1-3.21,2.17,9.73,9.73,0,0,1-7.49,0,10.14,10.14,0,0,1-3.21-2.16,9.83,9.83,0,0,1-2.1-3.19,10.39,10.39,0,0,1-.75-3.89V79.86h-4.52v22.77a14.9,14.9,0,0,0,1.07,5.59,13.4,13.4,0,0,0,3.09,4.63,14.29,14.29,0,0,0,4.66,3.21,14,14,0,0,0,11,0,14.37,14.37,0,0,0,4.6-3.18,13.46,13.46,0,0,0,3.12-4.66,15.1,15.1,0,0,0,1.07-5.59V79.86h-4.53Z"/><path id="Path_9598" data-name="Path 9598" d="M236.75,101.45c.45,0,.88-.07,1.3-.12a12.12,12.12,0,0,0,3.53-1,11.3,11.3,0,0,0,4.61-3.68,9.68,9.68,0,0,0,1.05-10,11,11,0,0,0-2.63-3.5,12.62,12.62,0,0,0-4.1-2.43,14.78,14.78,0,0,0-5-.84H222.31v37h4.52V84.37h8.7a9.47,9.47,0,0,1,4.35,1,7.22,7.22,0,0,1,2.82,2.41,5.28,5.28,0,0,1,1,3,5.14,5.14,0,0,1-1.12,3.19,7.68,7.68,0,0,1-2.73,2.27,16.33,16.33,0,0,1-6,.94h-6.53l16.08,19.52.14.17h5.94Z"/><path id="Path_9599" data-name="Path 9599" d="M273,116.81h5l4.13-8.85h17.19l3.91,8.85h4.93L291.11,77.92ZM291,89l6.39,14.46H284.26Z"/><path id="Path_9600" data-name="Path 9600" d="M232.68,139.45a2.49,2.49,0,1,0-2.49,2.49h0A2.51,2.51,0,0,0,232.68,139.45Z"/><path id="Path_9601" data-name="Path 9601" d="M223.62,149.07a15,15,0,0,0,10.58,25.55h7.5V144.68h-7.5A14.43,14.43,0,0,0,223.62,149.07Zm13.54.25V170h-3.25a9.66,9.66,0,0,1-7-2.94,10.4,10.4,0,0,1,7.33-17.77Z"/><path id="Path_9602" data-name="Path 9602" d="M240.79,139.45a2.49,2.49,0,1,0-2.49,2.49h0A2.49,2.49,0,0,0,240.79,139.45Z"/><path id="Path_9603" data-name="Path 9603" d="M253.29,175.71a4.12,4.12,0,0,1-1.71,3.29,6.81,6.81,0,0,1-3.52,1.44l-.93.12v4.51l1.15-.1a11.51,11.51,0,0,0,6.32-2.54,8.56,8.56,0,0,0,3.22-6.72v-31h-4.54Z"/><path id="Path_9604" data-name="Path 9604" d="M301.16,170H285.71V144.68h-7.5a15,15,0,0,0,0,29.94h3v1.09a4.12,4.12,0,0,1-1.71,3.29,6.83,6.83,0,0,1-4.45,1.48,7.15,7.15,0,0,1-3.08-.66,6.31,6.31,0,0,1-2.28-1.78l-1.35-1.8L264.66,179l1.36,1.8a10.43,10.43,0,0,0,3.92,3.14A12,12,0,0,0,275,185a11.56,11.56,0,0,0,7.46-2.59,8.56,8.56,0,0,0,3.23-6.73v-1.09h20.05V144.68h-4.59Zm-20-20.71V170h-3.24a9.55,9.55,0,0,1-7.05-2.94,10.41,10.41,0,0,1,7.33-17.77Z"/><path id="Path_9605" data-name="Path 9605" d="M303.46,137.21a2.48,2.48,0,1,0,2.48,2.48A2.47,2.47,0,0,0,303.46,137.21Z"/><path id="Path_9606" data-name="Path 9606" d="M397.67,170H386.88V144.68h-4.54V170H374V144.78H369.4V170h-8.34V144.78h-4.59v33.6h-5.11a17.79,17.79,0,0,1-11.24-3.64,10.11,10.11,0,0,1-4.46-8.24v-9.12h-4.54v9.12a13.7,13.7,0,0,0,1.7,6.62,17.47,17.47,0,0,0,4.47,5.24,20.36,20.36,0,0,0,6.42,3.37,23.64,23.64,0,0,0,7.36,1.25h10v-8.35h41.2V144.68h-4.59Z"/><path id="Path_9607" data-name="Path 9607" d="M400,137.21a2.48,2.48,0,1,0,2.49,2.48A2.48,2.48,0,0,0,400,137.21Z"/><path id="Path_9608" data-name="Path 9608" d="M412.6,142.18a2.49,2.49,0,1,0-2.48-2.48A2.49,2.49,0,0,0,412.6,142.18Z"/><path id="Path_9609" data-name="Path 9609" d="M454.78,177.55a2.49,2.49,0,1,0,2.49,2.49h0A2.49,2.49,0,0,0,454.78,177.55Z"/><path id="Path_9610" data-name="Path 9610" d="M457.24,144.68H452.7V170H414.76V144.68h-4.54v31a4.12,4.12,0,0,1-1.71,3.29,6.78,6.78,0,0,1-3.52,1.44l-.93.12v4.51l1.15-.1a11.48,11.48,0,0,0,6.32-2.54,8.54,8.54,0,0,0,3.23-6.72v-1.09h42.47Z"/><path id="Path_9611" data-name="Path 9611" class="cls-3" d="M128,164.32a5.52,5.52,0,1,0-5.53-5.52h0A5.53,5.53,0,0,0,128,164.32Z"/><path id="Path_9612" data-name="Path 9612" class="cls-2" d="M73.88,164.32a5.52,5.52,0,1,0-5.52-5.52h0A5.52,5.52,0,0,0,73.88,164.32Z"/><path id="Path_9613" data-name="Path 9613" class="cls-1" d="M180.46,153.28A5.52,5.52,0,1,0,186,158.8h0A5.52,5.52,0,0,0,180.46,153.28Z"/></g></g></g><g id="Group_1733" data-name="Group 1733"><path id="Path_9614" data-name="Path 9614" d="M44.12,22.85a9.35,9.35,0,0,1,3.07,2,10,10,0,0,1,2,10.69,9.38,9.38,0,0,1-5.12,5.1,10.2,10.2,0,0,1-7.64,0,9.33,9.33,0,0,1-5.11-5.1,9.84,9.84,0,0,1,2-10.69,9.24,9.24,0,0,1,3.07-2,10.2,10.2,0,0,1,7.64,0ZM37,24.13a8,8,0,0,0-4.3,4.4,9,9,0,0,0,0,6.5,8.15,8.15,0,0,0,15.11,0,8.8,8.8,0,0,0,0-6.5,8.2,8.2,0,0,0-1.72-2.63A8.33,8.33,0,0,0,37,24.13Zm-.25,13.25V26.19h4.29a4,4,0,0,1,2.77.79,3,3,0,0,1,.87,2.31,3.27,3.27,0,0,1-.22,1.27,2.47,2.47,0,0,1-.61.92,2.8,2.8,0,0,1-.89.6,5.18,5.18,0,0,1-1.08.33l3.33,5H43.62l-3.15-5H38.16v5Zm4.44-6.18A4,4,0,0,0,42.3,31a1.67,1.67,0,0,0,.75-.59,1.86,1.86,0,0,0,.29-1.1,1.92,1.92,0,0,0-.22-1,1.75,1.75,0,0,0-.6-.58,2.62,2.62,0,0,0-.85-.3,6.61,6.61,0,0,0-1-.08H38.15v3.88H40C40.4,31.24,40.81,31.22,41.22,31.2Z"/></g></g></svg>